<?xml version="1.0" encoding="UTF-8" standalone="no"?>
<!-- Generator: Adobe Illustrator 19.0.0, SVG Export Plug-In . SVG Version: 6.00 Build 0)  -->

<svg
   xmlns:dc="http://purl.org/dc/elements/1.1/"
   xmlns:cc="http://creativecommons.org/ns#"
   xmlns:rdf="http://www.w3.org/1999/02/22-rdf-syntax-ns#"
   xmlns:svg="http://www.w3.org/2000/svg"
   xmlns="http://www.w3.org/2000/svg"
   xmlns:sodipodi="http://sodipodi.sourceforge.net/DTD/sodipodi-0.dtd"
   xmlns:inkscape="http://www.inkscape.org/namespaces/inkscape"
   version="1.1"
   id="Capa_1"
   x="0px"
   y="0px"
   viewBox="0 0 511.989 511.989"
   style="enable-background:new 0 0 511.989 511.989;"
   xml:space="preserve"
   width="512"
   height="512"
   sodipodi:docname="gavel.svg"
   inkscape:version="0.92.3 (2405546, 2018-03-11)"><metadata
   id="metadata19"><rdf:RDF><cc:Work
       rdf:about=""><dc:format>image/svg+xml</dc:format><dc:type
         rdf:resource="http://purl.org/dc/dcmitype/StillImage" /><dc:title></dc:title></cc:Work></rdf:RDF></metadata><defs
   id="defs17" /><sodipodi:namedview
   pagecolor="#ffffff"
   bordercolor="#666666"
   borderopacity="1"
   objecttolerance="10"
   gridtolerance="10"
   guidetolerance="10"
   inkscape:pageopacity="0"
   inkscape:pageshadow="2"
   inkscape:window-width="640"
   inkscape:window-height="480"
   id="namedview15"
   showgrid="false"
   inkscape:zoom="0.4609375"
   inkscape:cx="256"
   inkscape:cy="256"
   inkscape:window-x="0"
   inkscape:window-y="30"
   inkscape:window-maximized="0"
   inkscape:current-layer="Capa_1" />
<g
   id="g12"
   style="fill:#ffffff">
	<path
   d="M385.925,191.021c-4.97-4.969-11.628-7.223-18.146-6.808L256.713,73.146c0.034-0.506,0.066-1.011,0.066-1.523   c0-6.286-2.448-12.195-6.893-16.64c-4.444-4.445-10.354-6.892-16.64-6.892s-12.195,2.447-16.64,6.892l-56.683,56.683   c-4.445,4.445-6.893,10.354-6.893,16.64c0,6.286,2.448,12.195,6.892,16.64c4.445,4.445,10.354,6.893,16.64,6.893   c0.515,0,1.025-0.022,1.534-0.055l33.205,33.205l-6.033,6.033c-4.97,4.97-7.224,11.628-6.81,18.146L6.881,400.747   c-9.175,9.175-9.175,24.104,0,33.28c4.587,4.588,10.614,6.881,16.64,6.881s12.052-2.293,16.64-6.881l191.58-191.58   c0.502,0.032,1.004,0.072,1.506,0.072c6.026,0,12.052-2.293,16.64-6.881l6.033-6.033l33.233,33.233   c-0.415,6.518,1.839,13.176,6.809,18.146c0,0,0,0,0,0c4.588,4.587,10.614,6.881,16.64,6.881c6.026,0,12.053-2.294,16.64-6.881   l56.683-56.683C395.1,215.126,395.1,200.197,385.925,191.021z M29.554,423.42c-1.611,1.611-3.754,2.499-6.033,2.499   s-4.422-0.887-6.033-2.499c-1.612-1.612-2.499-3.754-2.499-6.034c0-2.279,0.887-4.421,2.499-6.033l17.37-17.37l12.067,12.067   L29.554,423.42z M57.531,395.444l-12.067-12.067l125.432-125.432l12.067,12.067L57.531,395.444z M193.569,259.406l-12.067-12.067   l23.422-23.422c0.12,0.125,0.223,0.26,0.347,0.384l11.336,11.336c0.123,0.123,0.258,0.227,0.384,0.346L193.569,259.406z    M239.28,225.031c-3.327,3.326-8.739,3.326-12.066,0l-11.336-11.336c-3.327-3.327-3.327-8.74,0-12.067l6.033-6.033l23.403,23.403   L239.28,225.031z M295.962,247.704c-0.123,0.123-0.227,0.258-0.346,0.383L192.83,145.302c0.124-0.119,0.252-0.234,0.374-0.356   l28.342-28.341c2.929-2.929,2.929-7.678,0-10.606c-2.929-2.93-7.678-2.929-10.606,0l-28.342,28.341   c-1.611,1.612-3.754,2.499-6.033,2.499s-4.421-0.887-6.033-2.5c-1.612-1.611-2.499-3.753-2.499-6.033   c0-2.279,0.887-4.421,2.499-6.033l56.683-56.683c3.327-3.326,8.739-3.326,12.066,0c1.612,1.612,2.499,3.754,2.499,6.033   c0,2.279-0.887,4.421-2.5,6.033l-5.668,5.668c-2.929,2.929-2.928,7.678,0,10.607c2.93,2.929,7.678,2.928,10.607-0.001l5.667-5.668   c0.122-0.122,0.237-0.25,0.356-0.374l102.786,102.786c-0.125,0.12-0.26,0.223-0.384,0.346L295.962,247.704z M375.318,213.695   l-56.683,56.682c-3.327,3.327-8.739,3.328-12.067,0c-3.326-3.327-3.326-8.74,0-12.067l56.683-56.682   c3.327-3.326,8.74-3.327,12.066,0S378.645,210.368,375.318,213.695z"
   id="path2"
   style="fill:#ffffff" />
	<path
   d="M504.489,448.898h-8.532v-8.532c0-12.976-10.557-23.532-23.532-23.532h-0.516v-8.532c0-12.976-10.557-23.532-23.532-23.532   h-96.194c-12.976,0-23.532,10.557-23.532,23.532v8.532h-0.516c-12.976,0-23.532,10.557-23.532,23.532v8.532h-8.532   c-4.142,0-7.5,3.358-7.5,7.5s3.358,7.5,7.5,7.5h208.419c4.142,0,7.5-3.358,7.5-7.5S508.631,448.898,504.489,448.898z    M319.602,440.365c0-4.705,3.828-8.532,8.532-8.532h88.177c4.142,0,7.5-3.358,7.5-7.5s-3.358-7.5-7.5-7.5H343.65v-8.532   c0-4.705,3.828-8.532,8.532-8.532h96.194c4.705,0,8.532,3.828,8.532,8.532v8.532h-8.533c-4.142,0-7.5,3.358-7.5,7.5   s3.358,7.5,7.5,7.5h24.049c4.705,0,8.532,3.828,8.532,8.532v8.532H319.602V440.365z"
   id="path4"
   style="fill:#ffffff" />
	<path
   d="M392.779,360.204c0,4.142,3.358,7.5,7.5,7.5s7.5-3.358,7.5-7.5v-64.129c0-4.142-3.358-7.5-7.5-7.5s-7.5,3.358-7.5,7.5   V360.204z"
   id="path6"
   style="fill:#ffffff" />
	<path
   d="M348.022,321.899c-3.447,2.297-4.378,6.954-2.08,10.4l16.032,24.048c1.445,2.168,3.823,3.341,6.247,3.341   c1.43,0,2.875-0.408,4.153-1.261c3.447-2.297,4.378-6.954,2.08-10.4l-16.032-24.048   C356.125,320.533,351.468,319.601,348.022,321.899z"
   id="path8"
   style="fill:#ffffff" />
	<path
   d="M428.184,358.428c1.279,0.853,2.724,1.261,4.153,1.261c2.423,0,4.802-1.173,6.247-3.341l16.032-24.048   c2.298-3.446,1.367-8.103-2.08-10.4c-3.446-2.297-8.103-1.367-10.4,2.08l-16.032,24.048   C423.806,351.474,424.737,356.13,428.184,358.428z"
   id="path10"
   style="fill:#ffffff" />
</g>















</svg>