<?xml version="1.0" encoding="UTF-8" standalone="no"?>
<svg
   xmlns:dc="http://purl.org/dc/elements/1.1/"
   xmlns:cc="http://creativecommons.org/ns#"
   xmlns:rdf="http://www.w3.org/1999/02/22-rdf-syntax-ns#"
   xmlns:svg="http://www.w3.org/2000/svg"
   xmlns="http://www.w3.org/2000/svg"
   xmlns:sodipodi="http://sodipodi.sourceforge.net/DTD/sodipodi-0.dtd"
   xmlns:inkscape="http://www.inkscape.org/namespaces/inkscape"
   id="Capa_1"
   enable-background="new 0 0 512 512"
   height="512"
   viewBox="0 0 512 512"
   width="512"
   version="1.1"
   sodipodi:docname="paper.svg"
   inkscape:version="0.92.3 (2405546, 2018-03-11)">
  <metadata
     id="metadata39">
    <rdf:RDF>
      <cc:Work
         rdf:about="">
        <dc:format>image/svg+xml</dc:format>
        <dc:type
           rdf:resource="http://purl.org/dc/dcmitype/StillImage" />
        <dc:title></dc:title>
      </cc:Work>
    </rdf:RDF>
  </metadata>
  <defs
     id="defs37" />
  <sodipodi:namedview
     pagecolor="#ffffff"
     bordercolor="#666666"
     borderopacity="1"
     objecttolerance="10"
     gridtolerance="10"
     guidetolerance="10"
     inkscape:pageopacity="0"
     inkscape:pageshadow="2"
     inkscape:window-width="640"
     inkscape:window-height="480"
     id="namedview35"
     showgrid="false"
     inkscape:zoom="0.4609375"
     inkscape:cx="256"
     inkscape:cy="256"
     inkscape:window-x="0"
     inkscape:window-y="30"
     inkscape:window-maximized="0"
     inkscape:current-layer="Capa_1" />
  <g
     id="g32"
     style="fill:#ffffff">
    <g
       id="g30"
       style="fill:#ffffff">
      <g
         id="g28"
         style="fill:#ffffff">
        <path
           d="m499.5 99.5h-14.315v-22.5c0-4.142-3.357-7.5-7.5-7.5h-362.685c-4.143 0-7.5 3.358-7.5 7.5s3.357 7.5 7.5 7.5h133.5v39h-12.5c-4.143 0-7.5 3.358-7.5 7.5s3.357 7.5 7.5 7.5h12.5v54.333h-12.5c-4.143 0-7.5 3.358-7.5 7.5s3.357 7.5 7.5 7.5h12.5v54.333h-12.5c-4.143 0-7.5 3.358-7.5 7.5s3.357 7.5 7.5 7.5h12.5v54.334h-12.5c-4.143 0-7.5 3.358-7.5 7.5s3.357 7.5 7.5 7.5h12.5v51h-206.685v-313h38.185c4.143 0 7.5-3.358 7.5-7.5s-3.357-7.5-7.5-7.5h-45.685c-4.143 0-7.5 3.358-7.5 7.5v22.5h-14.315c-6.893 0-12.5 5.607-12.5 12.5v318c0 6.893 5.607 12.5 12.5 12.5h487c6.893 0 12.5-5.607 12.5-12.5v-318c0-6.893-5.607-12.5-12.5-12.5zm-2.5 328h-482v-313h11.815v290.5c0 4.142 3.357 7.5 7.5 7.5h277.685c4.143 0 7.5-3.358 7.5-7.5s-3.357-7.5-7.5-7.5h-48.5v-51h12.5c4.143 0 7.5-3.358 7.5-7.5s-3.357-7.5-7.5-7.5h-12.5v-54.333h12.5c4.143 0 7.5-3.358 7.5-7.5s-3.357-7.5-7.5-7.5h-12.5v-54.333h12.5c4.143 0 7.5-3.358 7.5-7.5s-3.357-7.5-7.5-7.5h-12.5v-54.334h12.5c4.143 0 7.5-3.358 7.5-7.5s-3.357-7.5-7.5-7.5h-12.5v-39h206.685v313h-123.185c-4.143 0-7.5 3.358-7.5 7.5s3.357 7.5 7.5 7.5h130.685c4.143 0 7.5-3.358 7.5-7.5v-290.5h11.815z"
           id="path2"
           style="fill:#ffffff" />
        <path
           d="m140.105 112.5c-38.356 0-69.563 31.206-69.563 69.563s31.206 69.563 69.563 69.563 69.563-31.206 69.563-69.563-31.206-69.563-69.563-69.563zm0 124.125c-30.086 0-54.563-24.477-54.563-54.563s24.478-54.562 54.563-54.562 54.563 24.477 54.563 54.563-24.477 54.562-54.563 54.562z"
           id="path4"
           style="fill:#ffffff" />
        <path
           d="m163.22 162.948-26.323 26.324-15.101-15.101c-2.93-2.929-7.678-2.929-10.607 0s-2.929 7.678 0 10.606l20.404 20.404c1.465 1.464 3.385 2.197 5.304 2.197s3.839-.732 5.304-2.197l31.627-31.627c2.929-2.929 2.929-7.678 0-10.606-2.931-2.929-7.679-2.929-10.608 0z"
           id="path6"
           style="fill:#ffffff" />
        <path
           d="m371.895 247.625c30.371 0 56.996-19.426 66.252-48.338 1.264-3.945-.911-8.167-4.855-9.43-3.946-1.261-8.166.912-9.43 4.856-7.26 22.676-28.144 37.912-51.967 37.912-30.086 0-54.563-24.477-54.563-54.563s24.477-54.563 54.563-54.563c24.67 0 46.344 16.628 52.706 40.437 1.069 4.001 5.179 6.378 9.183 5.309 4.002-1.069 6.379-5.18 5.31-9.182-8.114-30.36-35.747-51.563-67.198-51.563-38.356 0-69.563 31.206-69.563 69.563s31.205 69.562 69.562 69.562z"
           id="path8"
           style="fill:#ffffff" />
        <path
           d="m397.814 153.269c-2.93-2.929-7.678-2.929-10.607 0l-12.75 12.75-12.75-12.75c-2.93-2.929-7.678-2.929-10.607 0s-2.929 7.678 0 10.606l12.75 12.75-12.75 12.75c-2.929 2.929-2.929 7.678 0 10.606 1.465 1.464 3.385 2.197 5.304 2.197s3.839-.732 5.304-2.197l12.75-12.75 12.75 12.75c1.465 1.464 3.385 2.197 5.304 2.197s3.839-.732 5.304-2.197c2.929-2.929 2.929-7.678 0-10.606l-12.75-12.75 12.75-12.75c2.927-2.929 2.927-7.678-.002-10.606z"
           id="path10"
           style="fill:#ffffff" />
        <path
           d="m186.605 271.5h-93c-4.143 0-7.5 3.358-7.5 7.5s3.357 7.5 7.5 7.5h93c4.143 0 7.5-3.358 7.5-7.5s-3.357-7.5-7.5-7.5z"
           id="path12"
           style="fill:#ffffff" />
        <path
           d="m186.605 298.5h-93c-4.143 0-7.5 3.358-7.5 7.5s3.357 7.5 7.5 7.5h93c4.143 0 7.5-3.358 7.5-7.5s-3.357-7.5-7.5-7.5z"
           id="path14"
           style="fill:#ffffff" />
        <path
           d="m186.605 325.5h-93c-4.143 0-7.5 3.358-7.5 7.5s3.357 7.5 7.5 7.5h93c4.143 0 7.5-3.358 7.5-7.5s-3.357-7.5-7.5-7.5z"
           id="path16"
           style="fill:#ffffff" />
        <path
           d="m186.605 352.5h-93c-4.143 0-7.5 3.358-7.5 7.5s3.357 7.5 7.5 7.5h93c4.143 0 7.5-3.358 7.5-7.5s-3.357-7.5-7.5-7.5z"
           id="path18"
           style="fill:#ffffff" />
        <path
           d="m418.395 271.5h-93c-4.143 0-7.5 3.358-7.5 7.5s3.357 7.5 7.5 7.5h93c4.143 0 7.5-3.358 7.5-7.5s-3.358-7.5-7.5-7.5z"
           id="path20"
           style="fill:#ffffff" />
        <path
           d="m418.395 298.5h-93c-4.143 0-7.5 3.358-7.5 7.5s3.357 7.5 7.5 7.5h93c4.143 0 7.5-3.358 7.5-7.5s-3.358-7.5-7.5-7.5z"
           id="path22"
           style="fill:#ffffff" />
        <path
           d="m418.395 325.5h-93c-4.143 0-7.5 3.358-7.5 7.5s3.357 7.5 7.5 7.5h93c4.143 0 7.5-3.358 7.5-7.5s-3.358-7.5-7.5-7.5z"
           id="path24"
           style="fill:#ffffff" />
        <path
           d="m425.895 360c0-4.142-3.357-7.5-7.5-7.5h-93c-4.143 0-7.5 3.358-7.5 7.5s3.357 7.5 7.5 7.5h93c4.142 0 7.5-3.358 7.5-7.5z"
           id="path26"
           style="fill:#ffffff" />
      </g>
    </g>
  </g>
</svg>
