<?xml version="1.0" encoding="UTF-8" standalone="no"?>
<!-- Generator: Adobe Illustrator 21.0.0, SVG Export Plug-In . SVG Version: 6.00 Build 0)  -->

<svg
   xmlns:dc="http://purl.org/dc/elements/1.1/"
   xmlns:cc="http://creativecommons.org/ns#"
   xmlns:rdf="http://www.w3.org/1999/02/22-rdf-syntax-ns#"
   xmlns:svg="http://www.w3.org/2000/svg"
   xmlns="http://www.w3.org/2000/svg"
   xmlns:sodipodi="http://sodipodi.sourceforge.net/DTD/sodipodi-0.dtd"
   xmlns:inkscape="http://www.inkscape.org/namespaces/inkscape"
   version="1.1"
   id="Capa_1"
   x="0px"
   y="0px"
   viewBox="0 0 512 512"
   style="enable-background:new 0 0 512 512;"
   xml:space="preserve"
   width="512"
   height="512"
   sodipodi:docname="tie.svg"
   inkscape:version="0.92.3 (2405546, 2018-03-11)"><metadata
   id="metadata11"><rdf:RDF><cc:Work
       rdf:about=""><dc:format>image/svg+xml</dc:format><dc:type
         rdf:resource="http://purl.org/dc/dcmitype/StillImage" /><dc:title></dc:title></cc:Work></rdf:RDF></metadata><defs
   id="defs9" /><sodipodi:namedview
   pagecolor="#ffffff"
   bordercolor="#666666"
   borderopacity="1"
   objecttolerance="10"
   gridtolerance="10"
   guidetolerance="10"
   inkscape:pageopacity="0"
   inkscape:pageshadow="2"
   inkscape:window-width="640"
   inkscape:window-height="480"
   id="namedview7"
   showgrid="false"
   inkscape:zoom="0.4609375"
   inkscape:cx="256"
   inkscape:cy="256"
   inkscape:window-x="0"
   inkscape:window-y="30"
   inkscape:window-maximized="0"
   inkscape:current-layer="Capa_1" />
<g
   id="g4"
   style="fill:#ffffff">
	<path
   d="M327.103,205.323C353.819,184.246,371,151.592,371,115C371,51.589,319.411,0,256,0S141,51.589,141,115   c0,36.592,17.181,69.246,43.897,90.323C133.519,220.852,96,268.623,96,325v187h320V325   C416,268.623,378.481,220.852,327.103,205.323z M280.537,415.25L256,439.787l-24.537-24.537L239.937,300h32.125L280.537,415.25z    M231,270v-40h50v40H231z M171,115c0-46.869,38.131-85,85-85s85,38.131,85,85s-38.131,85-85,85S171,161.869,171,115z M126,325   c0-45.523,32.189-83.665,75-92.875V300h8.857l-9.32,126.75l55.25,55.25H126V325z M386,482H256.213l55.25-55.25L302.143,300H311   v-67.875c42.811,9.21,75,47.351,75,92.875V482z"
   id="path2"
   style="fill:#ffffff" />
</g>















</svg>